<?xml version="1.0" encoding="utf-8"?>
<!-- Generator: Adobe Illustrator 23.1.1, SVG Export Plug-In . SVG Version: 6.00 Build 0)  -->
<svg version="1.1" id="Layer_1" xmlns="http://www.w3.org/2000/svg" xmlns:xlink="http://www.w3.org/1999/xlink" x="0px" y="0px"
	 viewBox="0 0 1920 1080" style="enable-background:new 0 0 1920 1080;" xml:space="preserve">
<style type="text/css">
	.st0{fill:#00A99D;stroke:#000000;stroke-miterlimit:10;}
	.st1{stroke:#000000;stroke-miterlimit:10;}
	.st2{fill:none;stroke:#000000;stroke-miterlimit:10;}
</style>
<path class="st0" d="M0.71,747.5l-0.01,0.8c-16.77,8.25-26.66,13.4-28.04,14.11C-25.88,761.57-14.34,754.97,0.71,747.5z"/>
<path class="st0" d="M1476.5,373.5"/>
<g>
	<path class="st1" d="M1875.5,654.5v-284l23-49v-36h-28v31h-26v-31h-39v28h-28v-28h-31v54l31,31v71.35h-43V411.5h-34l0.35,30.35
		h-41.35V411.5h-36l0.42,30.35h-35.42V411.5h-31l-0.24,30.35h-26.76V370.5l23-49v-36h-28v31h-26v-31h-39v28h-28v-28h-31v54l31,31
		v284c0,0-13.97,1.34-38.36,2.67c-102.29,5.59-387.85,11.19-594.49-81.67C577.8,475.8,119.67,687.27,1.7,745.3l-3.01,331.2
		l1922.31,1v-423H1875.5z M1605.97,654.5c49.48-257,76.53,0,84.62,0H1605.97z"/>
	<path class="st1" d="M552.32,285.49c-83.45-3.72-128.54-29.09-130.82-79.99c-2.22-49.68,43-94,90-110
		C423.3,203.3,547.04,283.64,552.32,285.49z"/>
	<path class="st2" d="M552.5,285.5c-0.06,0-0.11-0.01-0.17-0.01C552.44,285.52,552.49,285.53,552.5,285.5z"/>
</g>
</svg>
